<svg width="17" height="18" viewBox="0 0 17 18" fill="none" xmlns="http://www.w3.org/2000/svg">
<path d="M14.2173 0.666748C14.6737 0.666748 15.044 1.04008 15.044 1.50008V4.63091L7.60439 12.1309L7.59943 15.6626L11.1097 15.6676L15.044 11.7017V16.5001C15.044 16.9601 14.6737 17.3334 14.2173 17.3334H0.989805C0.533456 17.3334 0.163086 16.9601 0.163086 16.5001V1.50008C0.163086 1.04008 0.533456 0.666748 0.989805 0.666748H14.2173ZM15.6872 6.34008L16.8562 7.51841L10.426 14.0001L9.25535 13.9984L9.257 12.8217L15.6872 6.34008ZM7.60356 9.00008H3.46996V10.6667H7.60356V9.00008ZM10.0837 5.66675H3.46996V7.33342H10.0837V5.66675Z" fill="#F34901"/>
</svg>
