<svg width="20" height="15" viewBox="0 0 20 15" fill="none" xmlns="http://www.w3.org/2000/svg">
<path d="M10.0002 0C14.4935 0 18.2319 3.23333 19.016 7.5C18.2327 11.7667 14.4935 15 10.0002 15C5.50688 15 1.76854 11.7667 0.984375 7.5C1.76771 3.23333 5.50688 0 10.0002 0ZM10.0002 13.3333C11.6998 13.333 13.3489 12.7557 14.6776 11.696C16.0063 10.6363 16.936 9.15689 17.3144 7.5C16.9346 5.84442 16.0043 4.36667 14.6757 3.30835C13.3471 2.25004 11.6988 1.67377 10.0002 1.67377C8.30162 1.67377 6.65328 2.25004 5.32469 3.30835C3.99609 4.36667 3.06585 5.84442 2.68604 7.5C3.06446 9.15689 3.9941 10.6363 5.32283 11.696C6.65155 12.7557 8.30065 13.333 10.0002 13.3333ZM10.0002 11.25C9.00565 11.25 8.05182 10.8549 7.34856 10.1516C6.6453 9.44839 6.25021 8.49456 6.25021 7.5C6.25021 6.50544 6.6453 5.55161 7.34856 4.84835C8.05182 4.14509 9.00565 3.75 10.0002 3.75C10.9948 3.75 11.9486 4.14509 12.6519 4.84835C13.3551 5.55161 13.7502 6.50544 13.7502 7.5C13.7502 8.49456 13.3551 9.44839 12.6519 10.1516C11.9486 10.8549 10.9948 11.25 10.0002 11.25ZM10.0002 9.58333C10.5527 9.58333 11.0826 9.36384 11.4733 8.97314C11.864 8.58244 12.0835 8.05253 12.0835 7.5C12.0835 6.94747 11.864 6.41756 11.4733 6.02686C11.0826 5.63616 10.5527 5.41667 10.0002 5.41667C9.44767 5.41667 8.91777 5.63616 8.52707 6.02686C8.13637 6.41756 7.91688 6.94747 7.91688 7.5C7.91688 8.05253 8.13637 8.58244 8.52707 8.97314C8.91777 9.36384 9.44767 9.58333 10.0002 9.58333Z" fill="#C4C4C4"/>
</svg>
