<svg width="572" height="162" viewBox="0 0 572 162" fill="none" xmlns="http://www.w3.org/2000/svg">
<path d="M1.8 11.6H52.2V62H43.776V20.024H10.224V62H1.8V11.6ZM80.928 11.096C84.48 11.096 87.816 11.768 90.936 13.112C94.104 14.456 96.864 16.28 99.216 18.584C101.616 20.888 103.512 23.6 104.904 26.72C106.296 29.84 106.992 33.176 106.992 36.728C106.992 40.28 106.296 43.616 104.904 46.736C103.512 49.856 101.616 52.592 99.216 54.944C96.864 57.248 94.104 59.072 90.936 60.416C87.816 61.76 84.48 62.432 80.928 62.432C77.328 62.432 73.944 61.76 70.776 60.416C67.608 59.072 64.824 57.248 62.424 54.944C60.072 52.592 58.2 49.856 56.808 46.736C55.416 43.616 54.72 40.28 54.72 36.728C54.72 33.176 55.416 29.84 56.808 26.72C58.2 23.6 60.072 20.888 62.424 18.584C64.824 16.28 67.608 14.456 70.776 13.112C73.944 11.768 77.328 11.096 80.928 11.096ZM63.216 36.728C63.216 39.128 63.672 41.384 64.584 43.496C65.544 45.608 66.816 47.456 68.4 49.04C70.032 50.576 71.904 51.8 74.016 52.712C76.176 53.624 78.48 54.08 80.928 54.08C83.328 54.08 85.584 53.624 87.696 52.712C89.856 51.8 91.728 50.576 93.312 49.04C94.896 47.456 96.144 45.608 97.056 43.496C98.016 41.384 98.496 39.128 98.496 36.728C98.496 34.328 98.016 32.096 97.056 30.032C96.144 27.92 94.896 26.096 93.312 24.56C91.728 22.976 89.856 21.728 87.696 20.816C85.584 19.904 83.328 19.448 80.928 19.448C78.48 19.448 76.176 19.904 74.016 20.816C71.904 21.728 70.032 22.976 68.4 24.56C66.816 26.096 65.544 27.92 64.584 30.032C63.672 32.096 63.216 34.328 63.216 36.728ZM151.279 11.6V45.224H117.943V62H109.519V11.6H151.279ZM142.855 36.8V20.024H117.943V36.8H142.855ZM154.301 11.6H204.629V36.8H196.205V20.024H183.677V62H175.253V20.024H162.725V36.8H154.301V11.6ZM207.812 62L223.076 11.6H255.188L270.452 62H261.668L256.772 45.224H221.492L216.596 62H207.812ZM224.228 36.8H254.036L249.14 20.024H229.124L224.228 36.8ZM287.805 11.6H318.765V62H310.341V20.024H293.565L282.117 62H273.333L287.805 11.6ZM401.583 90.6L426.783 105.72L452.343 90.6H460.767V141H452.343V100.608L426.783 115.8L401.583 100.608V141H393.159V90.6H401.583ZM472.81 90.6V122.856L498.082 98.592V90.6H506.506V141H498.082V109.968L472.954 134.304L472.81 141H464.386V90.6H472.81ZM551.849 90.6V124.224H518.513V141H510.089V90.6H551.849ZM543.425 115.8V99.024H518.513V115.8H543.425Z" fill="black"/>
<path d="M1.8 90.6H10.224V124.224H13.824L23.544 90.6H32.04L22.392 124.296H40.176V141H31.824V132.576H10.224V141H1.8V90.6ZM43.425 90.6H51.849V124.152H78.921V90.6H87.345V141H78.921V132.576H51.849V141H43.425V90.6ZM99.3803 90.6V122.856L124.652 98.592V90.6H133.076V141H124.652V109.968L99.5243 134.304L99.3803 141H90.9563V90.6H99.3803ZM136.299 141V124.224H154.083L144.435 90.6H152.931L162.651 124.152H166.251V90.6H174.675V124.152H178.275L187.995 90.6H196.491L186.843 124.224H204.627V141H196.275V132.576H174.675V141H166.251V132.576H144.651V141H136.299ZM207.886 90.6H216.31V124.152H243.382V90.6H251.806V141H243.382V132.576H216.31V141H207.886V90.6ZM255.417 90.6H263.841V107.376H291.273V141H255.417V90.6ZM299.481 90.6H307.905V141H299.481V90.6ZM263.841 115.8V132.576H282.849V115.8H263.841ZM311.456 90.6H319.88V122.856L345.152 98.592V90.6H353.576V141H345.152V109.968L320.024 134.304L319.88 141H311.456V90.6ZM345.08 77.352V85.56H319.664V77.352H345.08Z" fill="#F34901"/>
<path d="M400.945 38.6924C400.945 42.3929 398.784 44.6302 394.46 45.4043V45.6309C396.877 45.9141 398.727 46.6787 400.011 47.9248C401.295 49.1709 401.937 50.7852 401.937 52.7676C401.937 55.7318 400.804 58.0163 398.538 59.6211C396.291 61.207 393.016 62 388.711 62H373.758V30.6777H388.654C396.848 30.6777 400.945 33.3493 400.945 38.6924ZM395.111 52.3711C395.111 50.8607 394.526 49.7939 393.355 49.1709C392.185 48.529 390.429 48.208 388.088 48.208H380.413V57.0723H388.258C392.827 57.0723 395.111 55.5052 395.111 52.3711ZM394.29 39.2588C394.29 38.0127 393.799 37.1159 392.817 36.5684C391.854 36.002 390.41 35.7188 388.484 35.7188H380.413V43.252H387.493C389.721 43.252 391.411 42.9688 392.562 42.4023C393.714 41.8171 394.29 40.7692 394.29 39.2588Z" fill="black"/>
</svg>
