<svg width="17" height="17" viewBox="0 0 17 17" fill="none" xmlns="http://www.w3.org/2000/svg">
<path d="M15.9359 4.15998L13.0009 1.20999C12.8069 1.01702 12.5445 0.908691 12.2709 0.908691C11.9973 0.908691 11.7348 1.01702 11.5409 1.20999L1.13588 11.6L0.185883 15.7C0.153111 15.8499 0.154235 16.0052 0.189171 16.1546C0.224108 16.3039 0.291975 16.4436 0.387815 16.5634C0.483654 16.6832 0.605046 16.7801 0.743121 16.847C0.881196 16.9139 1.03247 16.9491 1.18588 16.95C1.25737 16.9572 1.3294 16.9572 1.40088 16.95L5.54588 16L15.9359 5.61999C16.1288 5.42604 16.2372 5.16358 16.2372 4.88999C16.2372 4.61639 16.1288 4.35393 15.9359 4.15998ZM5.04588 15.1L1.16088 15.915L2.04588 12.105L9.83088 4.34999L12.8309 7.34999L5.04588 15.1ZM13.5009 6.62499L10.5009 3.62498L12.2409 1.89499L15.1909 4.89499L13.5009 6.62499Z" fill="#222222"/>
</svg>
