<svg width="17" height="17" viewBox="0 0 17 17" fill="none" xmlns="http://www.w3.org/2000/svg">
<path d="M15.935 4.15998L13 1.20999C12.8061 1.01702 12.5436 0.908691 12.27 0.908691C11.9964 0.908691 11.734 1.01702 11.54 1.20999L1.13503 11.6L0.185028 15.7C0.152257 15.8499 0.15338 16.0052 0.188317 16.1546C0.223253 16.3039 0.29112 16.4436 0.38696 16.5634C0.4828 16.6832 0.604191 16.7801 0.742267 16.847C0.880342 16.9139 1.03161 16.9491 1.18503 16.95C1.25651 16.9572 1.32854 16.9572 1.40003 16.95L5.54503 16L15.935 5.61999C16.128 5.42604 16.2363 5.16358 16.2363 4.88999C16.2363 4.61639 16.128 4.35393 15.935 4.15998ZM5.04503 15.1L1.16003 15.915L2.04503 12.105L9.83003 4.34999L12.83 7.34999L5.04503 15.1ZM13.5 6.62499L10.5 3.62498L12.24 1.89499L15.19 4.89499L13.5 6.62499Z" fill="#222222"/>
</svg>
