<svg width="19" height="19" viewBox="0 0 19 19" fill="none" xmlns="http://www.w3.org/2000/svg">
<path d="M0.666016 18.3333C0.666016 16.5651 1.36839 14.8695 2.61864 13.6192C3.86888 12.369 5.56457 11.6666 7.33268 11.6666C9.10079 11.6666 10.7965 12.369 12.0467 13.6192C13.297 14.8695 13.9993 16.5651 13.9993 18.3333H0.666016ZM7.33268 10.8333C4.57018 10.8333 2.33268 8.59575 2.33268 5.83325C2.33268 3.07075 4.57018 0.833252 7.33268 0.833252C10.0952 0.833252 12.3327 3.07075 12.3327 5.83325C12.3327 8.59575 10.0952 10.8333 7.33268 10.8333ZM13.4685 12.6941C14.7432 13.0217 15.8821 13.7431 16.723 14.7556C17.5638 15.7681 18.0639 17.0201 18.1518 18.3333H15.666C15.666 16.1583 14.8327 14.1783 13.4685 12.6941ZM11.7827 10.7974C12.481 10.1728 13.0395 9.4077 13.4215 8.55221C13.8035 7.69672 14.0004 6.77016 13.9993 5.83325C14.0011 4.69447 13.7098 3.5744 13.1535 2.58075C14.0974 2.77041 14.9464 3.28106 15.5564 4.02592C16.1663 4.77077 16.4995 5.70386 16.4993 6.66659C16.4996 7.26031 16.3729 7.84722 16.1278 8.38798C15.8827 8.92875 15.5248 9.41087 15.0781 9.80204C14.6315 10.1932 14.1064 10.4844 13.538 10.6561C12.9697 10.8277 12.3712 10.8759 11.7827 10.7974Z" fill="#F34901"/>
</svg>
